<svg xmlns="http://www.w3.org/2000/svg" xmlns:xlink="http://www.w3.org/1999/xlink" width="500" zoomAndPan="magnify" viewBox="0 0 375 374.999991" height="500" preserveAspectRatio="xMidYMid meet" version="1.0"><defs><g/></defs><rect x="-37.5" width="450" fill="#ffffff" y="-37.499999" height="449.999989" fill-opacity="1"/><rect x="-37.5" width="450" fill="#212529" y="-37.499999" height="449.999989" fill-opacity="1"/><g fill="#ffffff" fill-opacity="1"><g transform="translate(-20.273537, 246.572615)"><g><path d="M 295.9375 -177.390625 L 280.34375 -150.375 L 190.625 -202.171875 L 145.828125 -124.578125 L 232.78125 -74.375 L 217.171875 -47.34375 L 130.21875 -97.546875 L 55.421875 32 L 26.328125 15.203125 L 177.125 -245.984375 Z M 295.9375 -177.390625 "/></g></g></g><g fill="#ffffff" fill-opacity="1"><g transform="translate(331.529977, 126.594162)"><g><path d="M -294.46875 179.828125 L -279.09375 152.6875 L -188.953125 203.734375 L -144.796875 125.765625 L -232.15625 76.28125 L -216.765625 49.140625 L -129.40625 98.625 L -55.6875 -31.546875 L -26.453125 -14.984375 L -175.09375 247.4375 Z M -294.46875 179.828125 "/></g></g></g><g fill="#ffffff" fill-opacity="1"><g transform="translate(165.160074, 32.362064)"><g/></g></g></svg>